<?xml version="1.0" encoding="utf-8"?>
<!-- Generator: Adobe Illustrator 24.1.2, SVG Export Plug-In . SVG Version: 6.00 Build 0)  -->
<svg version="1.1" id="Слой_1" xmlns="http://www.w3.org/2000/svg" xmlns:xlink="http://www.w3.org/1999/xlink" x="0px" y="0px"
	 viewBox="0 0 1315 500" style="enable-background:new 0 0 1315 500;" xml:space="preserve">
<style type="text/css">
	.st0{fill:#669335;}
	.st1{fill:#292E1E;}
	.st2{fill:#E9EDDE;}
</style>
<g id="XMLID_7_">
	<g>
		<path class="st0" d="M513.4,250.9c0.1,26.6-4.4,52.2-12.5,76c-1.1,3.2-2.2,6.3-3.4,9.4c-0.6,1.6-1.2,3.1-1.9,4.6
			c-0.5,1.2-1,2.3-1.5,3.4c-0.4,1-0.9,2.1-1.4,3.1c-0.9,2.1-1.9,4.2-2.9,6.2c-0.2,0.5-0.5,1-0.7,1.5c-0.9,1.8-1.8,3.5-2.7,5.3
			c-0.3,0.6-0.7,1.3-1,1.9c-0.8,1.6-1.7,3.1-2.5,4.6c-0.1,0.2-0.2,0.4-0.3,0.6c0,0-0.1,0.1-0.1,0.1c-0.8,1.3-1.6,2.7-2.4,4
			c-0.8,1.3-1.5,2.5-2.3,3.7c-1,1.6-2,3.1-3,4.6c-0.5,0.7-0.9,1.4-1.4,2.1c-0.7,1.1-1.5,2.2-2.2,3.2c-0.8,1.1-1.5,2.2-2.3,3.2
			c-0.8,1.1-1.6,2.1-2.3,3.2c-0.1,0.2-0.2,0.3-0.4,0.5c-0.7,1-1.5,2-2.3,2.9c-0.9,1.2-1.9,2.4-2.9,3.6c-1,1.2-2,2.4-3,3.6
			c-0.7,0.8-1.4,1.6-2,2.4c-0.8,0.9-1.6,1.8-2.4,2.7c-0.8,0.9-1.7,1.9-2.5,2.8c-0.8,0.9-1.7,1.8-2.5,2.7c0,0-0.1,0.1-0.1,0.1
			c-0.8,0.9-1.7,1.7-2.5,2.5c-3.5,3.5-7.1,6.9-10.8,10.2c-0.8,0.7-1.7,1.5-2.5,2.2c-2.6,2.3-5.2,4.4-7.9,6.6c-0.9,0.7-1.7,1.4-2.6,2
			c-0.6,0.5-1.3,1-1.9,1.4c-0.9,0.7-1.8,1.4-2.8,2c-0.9,0.7-1.9,1.4-2.8,2c-0.3,0.2-0.5,0.4-0.8,0.5c-0.7,0.5-1.3,0.9-2,1.4
			c-0.7,0.5-1.4,0.9-2,1.4c-0.7,0.4-1.3,0.9-2,1.4c-1.1,0.7-2.2,1.4-3.4,2.1c-0.2,0.1-0.4,0.3-0.7,0.4c-0.2,0.1-0.4,0.3-0.7,0.4
			c-1.1,0.7-2.2,1.3-3.3,2c-1.1,0.7-2.2,1.3-3.3,1.9c-2.2,1.3-4.4,2.5-6.7,3.7c-1,0.5-1.9,1-2.9,1.5c-1.9,1-3.9,2-5.9,3
			c-1,0.5-2,0.9-3,1.4c-3,1.4-6.1,2.7-9.1,4c-1,0.4-2.1,0.8-3.1,1.2c-1.6,0.7-3.2,1.3-4.9,1.9c-2,0.7-4,1.5-6.1,2.2
			c-1,0.3-2,0.7-3.1,1c-1,0.3-2,0.7-3.1,1c-1.5,0.5-3,0.9-4.5,1.3c-1.5,0.5-3,0.9-4.6,1.3c-2.5,0.7-5.1,1.3-7.7,1.9
			c-2.6,0.6-5.2,1.1-7.8,1.6c-1.3,0.3-2.7,0.5-4,0.7c-1,0.2-2,0.3-2.9,0.5c-2.3,0.4-4.7,0.7-7,1c-0.2,0-0.4,0-0.5,0.1
			c-1.1,0.1-2.2,0.3-3.2,0.4c-1.2,0.1-2.3,0.3-3.5,0.4c-1.3,0.2-2.5,0.3-3.8,0.4c-0.6,0.1-1.1,0.1-1.7,0.1c-1.2,0.1-2.4,0.2-3.6,0.3
			c-0.7,0.1-1.4,0.1-2.1,0.1c-1.2,0.1-2.5,0.1-3.7,0.2c-1.3,0-2.5,0.1-3.8,0.1c-1.2,0-2.4,0.1-3.7,0.1h-0.1c-0.6,0-1.2,0-1.8,0
			c-0.1,0-0.1,0-0.2,0c-2.3,0-4.7-0.1-7-0.1c-1,0-2-0.1-3-0.1c-4-0.2-7.9-0.5-11.9-0.9c-1-0.1-1.9-0.2-2.9-0.3
			c-2-0.2-3.9-0.5-5.8-0.7c-1.9-0.3-3.9-0.6-5.8-0.9c-2.9-0.5-5.8-1-8.6-1.6c-1.9-0.4-3.8-0.8-5.7-1.2c-0.9-0.2-1.9-0.4-2.8-0.7
			s-1.9-0.5-2.8-0.7c-1-0.2-2-0.5-3-0.8c-2.7-0.7-5.4-1.5-8.1-2.3c-0.9-0.3-1.8-0.6-2.7-0.9c-0.3-0.1-0.5-0.2-0.8-0.2
			c-0.6-0.2-1.3-0.4-1.9-0.6c-1.8-0.6-3.6-1.2-5.4-1.9c-0.9-0.3-1.8-0.7-2.7-1c-3.5-1.3-7.1-2.8-10.5-4.3c0,0,0,0,0,0
			c-2.6-1.1-5.1-2.3-7.6-3.5c-1.2-0.6-2.4-1.2-3.7-1.8c-1.2-0.6-2.4-1.2-3.6-1.8c-12-6.3-23.4-13.6-34.1-21.7
			c-1.1-0.8-2.1-1.7-3.2-2.5c-3.2-2.5-6.3-5.1-9.3-7.8c-48.3-42.7-78.9-105-79.1-174.5c-0.2-62.3,24.1-119,63.8-161
			c1.3-1.4,2.7-2.8,4-4.2c1.4-1.4,2.7-2.7,4.1-4c0.7-0.7,1.3-1.3,2-1.9c0.8-0.7,1.6-1.4,2.3-2.2c0.1-0.1,0.1-0.1,0.1-0.1
			c0.8-0.7,1.6-1.4,2.3-2.1c0.8-0.7,1.6-1.4,2.4-2.1c0.6-0.5,1.2-1,1.8-1.5c1-0.9,2.1-1.7,3.1-2.6c4.5-3.7,9.1-7.1,13.8-10.5
			c2.4-1.7,4.8-3.3,7.2-4.9c1.2-0.8,2.4-1.6,3.7-2.3c1.2-0.8,2.5-1.5,3.7-2.3c2.5-1.5,5-2.9,7.6-4.3c1.3-0.7,2.6-1.4,3.9-2
			c1.3-0.7,2.6-1.3,3.9-2c1.3-0.6,2.6-1.3,3.9-1.9c1.3-0.6,2.7-1.2,4-1.8c1.3-0.6,2.7-1.2,4-1.8c1.3-0.6,2.7-1.1,4.1-1.7
			c1.4-0.6,2.7-1.1,4.1-1.6c4.3-1.6,8.6-3.2,13.1-4.6c0.2,0,0.3-0.1,0.5-0.1c1.8-0.6,3.7-1.1,5.5-1.7c0.9-0.3,1.8-0.5,2.8-0.8
			c2.8-0.8,5.6-1.5,8.4-2.1c0.9-0.2,1.9-0.4,2.8-0.7c1-0.2,2-0.4,3-0.6c1.9-0.4,3.7-0.8,5.6-1.1c1-0.2,1.9-0.3,2.9-0.5
			c1.9-0.3,3.9-0.6,5.8-0.9c1-0.1,1.9-0.3,2.9-0.4c0.9-0.1,1.7-0.2,2.6-0.3c1.1-0.1,2.2-0.2,3.2-0.4c2-0.2,3.9-0.4,5.9-0.5
			c1-0.1,2-0.2,3-0.2c2.4-0.2,4.9-0.3,7.3-0.4c1.1,0,2.3-0.1,3.4-0.1c1.4,0,2.9,0,4.3,0c1.3,0,2.7,0,4,0c1.3,0,2.7,0.1,4,0.1
			c1.3,0,2.5,0.1,3.8,0.1c2.3,0.1,4.7,0.2,7,0.4c0.6,0,1.3,0.1,1.9,0.2c0.1,0,0.1,0,0.2,0c2.3,0.2,4.7,0.4,7,0.7
			c1.3,0.2,2.6,0.3,3.9,0.5c1,0.1,1.9,0.3,2.9,0.4c1.9,0.3,3.9,0.6,5.8,0.9c1,0.2,1.9,0.3,2.9,0.5c2.6,0.5,5.1,1,7.6,1.6
			c1.3,0.3,2.5,0.6,3.8,0.9c6.3,1.5,12.5,3.2,18.6,5.3c1.4,0.4,2.7,0.9,4.1,1.4c6.8,2.4,13.5,5,19.9,8c2.6,1.2,5.2,2.4,7.7,3.7
			c2.5,1.3,5,2.6,7.5,3.9c0.2,0.1,0.3,0.2,0.5,0.3c2.3,1.3,4.6,2.6,6.8,3.9c0.2,0.1,0.3,0.2,0.5,0.3c2.3,1.4,4.5,2.7,6.7,4.2
			c0.1,0.1,0.3,0.2,0.4,0.3c2.2,1.5,4.4,2.9,6.6,4.5c0.1,0.1,0.2,0.1,0.2,0.2c1.1,0.8,2.3,1.6,3.4,2.4c0.6,0.4,1.1,0.8,1.7,1.2
			c0.6,0.4,1.1,0.8,1.7,1.2c0,0,0,0,0,0c0,0,0,0,0,0c4.5,3.4,9,7,13.2,10.8c1,0.9,2,1.8,3,2.7c2,1.8,4.1,3.8,6.1,5.7
			c0.1,0.1,0.1,0.1,0.2,0.2c1.8,1.8,3.6,3.6,5.3,5.4c0.2,0.2,0.3,0.4,0.5,0.5c0.8,0.9,1.6,1.7,2.4,2.6c0.9,1,1.8,1.9,2.7,2.9
			c0.9,1,1.8,2,2.6,3c0.9,1,1.7,2,2.6,3c0.6,0.7,1.1,1.3,1.6,2c0.6,0.7,1.1,1.3,1.6,2c0.6,0.7,1.1,1.4,1.7,2.1
			c0.1,0.1,0.1,0.2,0.2,0.2c1.6,2.1,3.2,4.2,4.8,6.4c0.8,1,1.5,2.1,2.2,3.1c1.9,2.7,3.7,5.4,5.5,8.2c0,0,0,0,0,0
			c0.9,1.4,1.8,2.8,2.6,4.2c0.8,1.3,1.5,2.5,2.2,3.8c0.1,0.2,0.2,0.3,0.3,0.5c0.6,1,1.2,2.1,1.8,3.1c0.1,0.1,0.1,0.2,0.1,0.2
			c0.4,0.7,0.8,1.4,1.2,2.2c0.4,0.8,0.9,1.6,1.3,2.5c0.5,1,1,1.9,1.5,2.9c0,0,0,0.1,0,0.1c0.7,1.3,1.3,2.6,2,3.9
			c0.2,0.5,0.5,1.1,0.7,1.6c0.7,1.4,1.3,2.8,2,4.3c0.7,1.4,1.3,2.9,1.9,4.3c0.1,0.3,0.2,0.5,0.3,0.8c0.8,1.7,1.5,3.5,2.2,5.3
			C507.5,192,513.4,220.8,513.4,250.9z M472.8,255.5c0.1-1.5,0.1-2.9,0.1-4.4c0-12.1-1.2-23.9-3.4-35.4
			c-2.6-13.7-6.5-26.8-11.8-39.3c-5.7-13.4-12.8-26.1-21.3-37.7c-35.1-48.6-92.4-80.2-157-80c-64.8,0.2-122.1,32.3-157,81.4
			c-8.3,11.6-15.3,24.3-20.8,37.6c-5.2,12.5-9.1,25.6-11.5,39.2C88,228.3,87,240,87,252c0,1.6,0,3.1,0.1,4.7
			c14.7,1.4,28.6,5.6,41.1,12.1c-0.6-5.5-0.9-11.1-1-16.8c0-8.9,0.7-17.7,2.2-26.2c2.3-13.5,6.4-26.4,12-38.5
			c5.9-12.7,13.5-24.4,22.4-34.8c27.9-32.7,69.4-53.4,115.7-53.5c45.9-0.1,87,20,115.1,51.9c9.2,10.4,16.9,22.1,23,34.7
			c5.8,12,10,24.8,12.5,38.3c1.6,8.9,2.5,18,2.5,27.4c0,5.1-0.2,10.1-0.7,15c-1.1,12.1-3.7,23.8-7.5,34.9c3.7,2.9,7.3,5.9,10.7,9
			c7.3,6.5,14.3,13.4,20.7,20.8c4.9-10.8,8.8-22.2,11.6-34C470.7,283.6,472.5,269.7,472.8,255.5z M410.6,393.5
			c8.5-7.9,16.3-16.4,23.3-25.6c-7-9.2-14.8-17.7-23.3-25.4c-3,8-4.7,16.6-4.7,25.6C405.9,377.1,407.5,385.6,410.6,393.5z
			 M389.4,278.5c2.1-8.7,3.3-17.8,3.2-27.2c0-2.7-0.1-5.4-0.3-8c-1.1-14.6-4.9-28.4-11-40.8v0c-6-12.4-14.2-23.5-24-32.8
			c-20.3-19.2-47.6-30.9-77.7-30.8c-30.8,0.1-58.6,12.5-78.9,32.5c-9.7,9.5-17.6,20.8-23.3,33.3c-5.9,12.8-9.4,26.9-10.1,41.7
			c-0.1,1.9-0.2,3.7-0.1,5.6c0,9.4,1.2,18.5,3.4,27.2c6.9-3.7,14-7,21.3-10c4.7-1.9,9.5-3.8,14.4-5.4c8.7-2.9,17.7-5.4,26.9-7.3
			c4.5-0.9,9.1-1.8,13.8-2.4c10.2-1.5,20.6-2.3,31.2-2.4c0.1,0,0.1,0,0.2,0c0.6,0,1.1,0,1.6,0c10,0,19.9,0.6,29.6,1.8
			c4.8,0.6,9.5,1.3,14.2,2.2c8.3,1.6,16.5,3.5,24.4,6c5.9,1.8,11.7,3.8,17.3,6C373.7,270.7,381.7,274.4,389.4,278.5z M379,417.1
			L379,417.1c-6.1-12.5-9.9-26.3-10.9-40.9c-0.2-2.6-0.3-5.3-0.3-8c0-2.8,0.1-5.5,0.3-8.3c1-14.6,4.8-28.4,10.8-40.9
			c-2-1.2-4.1-2.4-6.1-3.5c-9.6-5.2-19.7-9.7-30.1-13.2c-3.8-1.3-7.6-2.5-11.5-3.5c-9.3-2.5-18.8-4.4-28.6-5.5
			c-1.8-0.2-3.5-0.4-5.3-0.5c-5.7-0.5-11.4-0.7-17.2-0.7c-7,0-13.9,0.4-20.8,1.2c-1.7,0.2-3.4,0.4-5,0.6
			c-10.2,1.4-20.2,3.6-29.8,6.5c-3.3,1-6.6,2.1-9.9,3.3c-9.4,3.4-18.4,7.5-27.1,12.3c-3,1.7-5.9,3.4-8.8,5.2
			c6,12.7,9.6,26.8,10.4,41.6c0.1,2,0.2,3.9,0.2,5.9c0,1.9,0,3.7-0.1,5.6c-0.7,14.8-4.2,28.9-10.1,41.7c2.8,1.8,5.8,3.5,8.7,5
			c8.7,4.8,17.8,8.9,27.3,12.2c3.2,1.2,6.5,2.2,9.7,3.2c9.7,2.9,19.7,5,30,6.4c1.6,0.2,3.2,0.4,4.8,0.6c6.9,0.7,13.8,1.1,20.9,1.1
			c5.8,0,11.6-0.3,17.3-0.8c1.7-0.1,3.4-0.3,5.1-0.5c9.8-1.1,19.4-3,28.7-5.6c3.8-1,7.6-2.2,11.4-3.5c10.5-3.6,20.6-8.1,30.2-13.4
			C375.1,419.4,377,418.3,379,417.1z M143,387.5c1.6-5.9,2.4-12.2,2.4-18.7c0-6.6-0.9-12.9-2.6-18.9c-3.8-13.8-11.6-25.9-22.1-35.1
			c-7.9-6.9-17.3-12.1-27.6-15c2.8,11.1,6.6,21.7,11.3,31.9c6,13.2,13.5,25.5,22.2,36.9C131.7,375.3,137.1,381.6,143,387.5z"/>
		<path class="st1" d="M472.8,251.1c0,1.5,0,2.9-0.1,4.4c-0.3,14.2-2.1,28.1-5.3,41.4c-2.8,11.8-6.7,23.2-11.6,34
			c-6.5-7.4-13.4-14.3-20.7-20.8c-3.5-3.1-7.1-6.1-10.7-9c3.8-11.1,6.4-22.8,7.5-34.9c0.5-4.9,0.7-10,0.7-15
			c0-9.4-0.9-18.5-2.5-27.4c-2.5-13.5-6.7-26.3-12.5-38.3c-6.1-12.6-13.8-24.3-23-34.7c-28.1-31.9-69.2-52-115.1-51.9
			c-46.3,0.1-87.8,20.9-115.7,53.5c-9,10.5-16.5,22.2-22.4,34.8c-5.6,12-9.7,25-12,38.5c-1.4,8.5-2.2,17.3-2.2,26.2
			c0,5.7,0.3,11.3,1,16.8c-12.5-6.5-26.4-10.7-41.1-12.1c-0.1-1.6-0.1-3.1-0.1-4.7c0-12,1-23.8,3.1-35.1
			c2.5-13.6,6.4-26.8,11.5-39.2c5.5-13.4,12.5-26,20.8-37.6c34.8-49.1,92.1-81.3,157-81.4c64.6-0.2,121.8,31.4,157,80
			c8.4,11.6,15.6,24.3,21.3,37.7c5.3,12.5,9.3,25.6,11.8,39.3C471.7,227.1,472.8,239,472.8,251.1z"/>
		<path class="st1" d="M433.8,367.9c-7,9.2-14.7,17.8-23.3,25.6c-3-7.9-4.7-16.5-4.7-25.4c0-9,1.6-17.7,4.7-25.6
			C419,350.2,426.8,358.7,433.8,367.9z"/>
		<path class="st2" d="M392.7,251.3c0,9.4-1.1,18.5-3.2,27.2c-7.7-4.1-15.7-7.8-23.9-11c-5.7-2.2-11.5-4.2-17.3-6
			c-8-2.4-16.1-4.4-24.4-6c-4.7-0.9-9.4-1.6-14.2-2.2c-9.7-1.2-19.6-1.8-29.6-1.8c-0.6,0-1.1,0-1.6,0c-0.1,0-0.1,0-0.2,0
			c-10.6,0.1-21,0.9-31.2,2.4c-4.7,0.7-9.2,1.5-13.8,2.4c-9.1,1.9-18.1,4.3-26.9,7.3c-4.9,1.6-9.7,3.4-14.4,5.4
			c-7.3,3-14.4,6.4-21.3,10c-2.2-8.7-3.4-17.8-3.4-27.2c0-1.9,0-3.7,0.1-5.6c0.7-14.8,4.2-28.9,10.1-41.7
			c5.7-12.5,13.6-23.7,23.3-33.3c20.3-20,48.1-32.4,78.9-32.5c30.1-0.1,57.5,11.6,77.7,30.8c9.9,9.4,18.1,20.4,24,32.8v0
			c6.1,12.5,9.9,26.3,11,40.8C392.6,245.9,392.7,248.6,392.7,251.3z"/>
		<path class="st2" d="M379,417.1L379,417.1c-2,1.2-4,2.4-6,3.5c-9.6,5.3-19.7,9.8-30.2,13.4c-3.7,1.3-7.5,2.5-11.4,3.5
			c-9.3,2.6-18.9,4.5-28.7,5.6c-1.7,0.2-3.4,0.4-5.1,0.5c-5.7,0.6-11.5,0.8-17.3,0.8c-7,0-14-0.3-20.9-1.1c-1.6-0.2-3.2-0.3-4.8-0.6
			c-10.3-1.3-20.3-3.5-30-6.4c-3.3-1-6.5-2-9.7-3.2c-9.5-3.4-18.6-7.5-27.3-12.2c-2.9-1.6-5.9-3.3-8.7-5
			c5.9-12.8,9.4-26.9,10.1-41.7c0.1-1.9,0.1-3.7,0.1-5.6c0-2-0.1-3.9-0.2-5.9c-0.8-14.8-4.4-28.9-10.4-41.6c2.9-1.8,5.8-3.5,8.8-5.2
			c8.7-4.8,17.7-8.9,27.1-12.3c3.3-1.2,6.5-2.3,9.9-3.3c9.6-2.9,19.6-5.1,29.8-6.5c1.7-0.3,3.4-0.4,5-0.6c6.8-0.8,13.7-1.2,20.8-1.2
			c5.8,0,11.5,0.2,17.2,0.7c1.8,0.1,3.6,0.3,5.3,0.5c9.8,1.1,19.3,3,28.6,5.5c3.9,1.1,7.7,2.2,11.5,3.5c10.5,3.5,20.6,8,30.1,13.2
			c2.1,1.1,4.1,2.3,6.1,3.5c-6,12.5-9.8,26.3-10.8,40.9c-0.2,2.7-0.3,5.5-0.3,8.3c0,2.7,0.1,5.4,0.3,8
			C369.1,390.8,373,404.6,379,417.1z"/>
		<path class="st1" d="M145.4,368.8c0,6.5-0.8,12.7-2.4,18.7c-5.9-5.9-11.4-12.2-16.4-18.8c-8.7-11.4-16.2-23.7-22.2-36.9
			c-4.7-10.2-8.5-20.9-11.3-31.9c10.4,2.9,19.8,8.1,27.6,15c10.5,9.1,18.3,21.3,22.1,35.1C144.5,355.9,145.4,362.2,145.4,368.8z"/>
	</g>
	<g>
	</g>
</g>
<g>
	<path class="st0" d="M573.3,385.7v-198h35.9v11.3c4.4-4.1,9.2-7.4,14.5-9.9c5.3-2.5,10.8-3.7,16.6-3.7c6.9,0,12.5,1.5,16.9,4.6
		c4.4,3.1,7.8,7.2,10.3,12.2c2.5,5.1,4.2,10.5,5.1,16.2c1,5.8,1.5,11.3,1.5,16.6v50.5c0,9.8-1.2,18.7-3.6,26.8
		c-2.4,8.1-6.2,14.5-11.3,19.3c-5.2,4.8-12.1,7.2-20.7,7.2c-5.5,0-10.6-1.3-15.4-3.9c-4.8-2.6-9.5-5.8-13.9-9.8v60.3H573.3z
		 M625,314.6c3.9,0,6.7-1.2,8.6-3.7c1.8-2.5,3.1-5.8,3.7-10.1c0.6-4.2,0.9-8.8,0.9-13.8v-53.4c0-4.6-0.4-8.8-1.1-12.5
		c-0.7-3.7-2-6.7-4-8.9c-1.9-2.2-4.8-3.3-8.4-3.3c-2.8,0-5.6,0.6-8.3,1.9c-2.7,1.3-5.1,2.8-7.3,4.5v94.1c2.3,1.5,4.8,2.8,7.4,3.7
		C619.2,314.1,622,314.6,625,314.6z"/>
	<path class="st0" d="M688.9,336.7l26.1-62.4c-4.6-2.1-8.3-5-11.2-8.9c-2.9-3.9-5.1-8.5-6.5-13.9c-1.4-5.4-2.1-11.4-2.1-17.9
		c0-7.4,1-13.9,3-19.6c2-5.7,5.3-10.4,9.9-14.3c4.6-3.9,10.6-6.8,17.9-8.9c7.4-2.1,16.4-3.1,26.9-3.1h43.5v149h-35.4v-55.9
		c-1.8,0-4,0-6.6-0.1c-2.6-0.1-4.8-0.2-6.6-0.4l-21.1,56.4H688.9z M758.6,260.4c0.3,0,0.8,0,1.4,0c0.6,0,1,0,1.2,0v-52.8
		c-0.2,0-0.6,0-1.2,0c-0.6,0-1,0-1.2,0c-7.4,0-13.4,0.9-18.1,2.7c-4.7,1.8-8,4.6-10,8.4c-2,3.8-3,8.7-3,14.7
		c0,9.1,2.4,15.9,7.3,20.2C739.8,258,747.6,260.3,758.6,260.4z"/>
	<path class="st0" d="M824.3,336.7v-149h48.8c12.8,0,22.7,1.6,29.6,4.9c6.9,3.3,11.6,7.6,14.1,13c2.5,5.4,3.9,11.6,4.1,18.4
		c0,8.6-1.7,15.5-5.1,20.7c-3.4,5.2-9,8.9-16.8,11c6.9,1.5,12.1,4.1,15.8,7.7c3.7,3.6,6.2,8,7.7,13.1c1.4,5.2,2.1,10.8,2.1,17
		c0,9.1-1.6,16.9-4.8,23.3c-3.2,6.4-8.5,11.3-16.1,14.7c-7.6,3.3-18,5-31.4,5H824.3z M859.9,247H872c5.3,0,9.2-1.5,11.8-4.6
		c2.5-3.1,3.8-8,3.8-14.7c0-6.4-1.4-11.1-4.2-14.3c-2.8-3.2-7.6-4.8-14.3-4.8h-9.2V247z M859.9,314.6h8.4c4,0,7.7-0.4,10.8-1.3
		c3.2-0.9,5.7-2.9,7.7-6.1c1.9-3.2,2.9-8.1,2.9-14.8c0-7.6-0.9-13.1-2.6-16.5c-1.8-3.4-4.2-5.5-7.3-6.3c-3.1-0.8-6.6-1.2-10.7-1.2
		h-9.2V314.6z"/>
	<path class="st0" d="M934.9,336.7l33.3-80.2l-31.9-68.8h35.4l19.3,41.2l16.9-41.2h30.6l-32.5,73.7l34.8,75.3h-35.6L984,291.1
		l-17.7,45.6H934.9z"/>
	<path class="st0" d="M1085.3,339.1c-6.9,0-12.8-1.8-17.7-5.3c-4.9-3.5-8.7-8-11.3-13.4c-2.6-5.4-4-11-4-16.9
		c0-9.3,1.8-17.1,5.3-23.5c3.5-6.4,8.2-11.7,14-16c5.8-4.3,12.4-8,19.8-11.2c7.4-3.2,14.9-6.1,22.4-8.6v-12.9
		c0-4.3-0.3-7.9-0.9-10.8c-0.6-2.9-1.8-5.2-3.4-6.7c-1.7-1.5-4.3-2.3-7.8-2.3c-3,0-5.4,0.7-7.3,2.1c-1.8,1.4-3.2,3.3-4,5.8
		c-0.8,2.5-1.3,5.4-1.5,8.6l-0.5,9l-34-1.3c0.5-17.2,4.9-29.9,13.1-38c8.2-8.2,20.6-12.2,37.4-12.2c15.3,0,26.4,4.1,33.4,12.4
		c7,8.2,10.4,19.4,10.4,33.5v68.8c0,5.5,0.1,10.5,0.4,14.9c0.3,4.5,0.6,8.5,1,12.1c0.4,3.6,0.8,6.8,1.2,9.5h-32.2
		c-0.5-3.4-1.2-7.3-2-11.7c-0.8-4.4-1.4-7.6-1.7-9.7c-1.8,6-5.1,11.5-10,16.4C1100.5,336.6,1093.8,339.1,1085.3,339.1z M1098.5,313
		c2.3,0,4.4-0.6,6.5-1.7c2-1.1,3.8-2.4,5.4-4c1.6-1.5,2.7-2.9,3.4-4.1v-41.5c-3.9,2.2-7.5,4.5-11,6.7c-3.4,2.2-6.4,4.7-9,7.3
		c-2.6,2.7-4.5,5.5-5.8,8.6c-1.3,3.1-2,6.7-2,10.8c0,5.5,1.1,9.8,3.3,13C1091.6,311.4,1094.6,313,1098.5,313z"/>
	<path class="st0" d="M1221.5,339.1c-11.6-0.2-20.9-2.4-27.8-6.7c-7-4.3-12-10.6-15-18.8c-3.1-8.2-4.6-18.3-4.6-30.2v-85.3
		c0-13.4,1.3-24.2,3.8-32.5c2.5-8.2,6.2-14.7,11-19.3c4.8-4.6,10.6-8.2,17.7-10.8c7-2.7,13.8-4.8,20.2-6.1
		c6.4-1.3,12.6-2.7,18.6-4.4c6-1.6,11.8-4.2,17.4-7.6l3.7,28.6c-5.5,2.9-11.3,5.1-17.4,6.4c-6.2,1.4-12.2,2.6-18.1,3.6
		c-5.9,1-11.4,2.7-16.5,4.9c-4.9,2.1-8.6,5.5-11,10.3c-2.4,4.8-3.6,11.4-3.6,19.8v17.5c2.3-2.4,5.2-4.6,8.8-6.4
		c3.6-1.9,7.7-3.4,12.1-4.4c4.5-1,9.1-1.5,13.9-1.5c7.9,0,14.6,1.7,20.2,5c5.5,3.3,9.8,8.9,12.7,16.8c2.9,7.8,4.4,18.5,4.4,32.1
		v32.5c0,15.5-2.1,27.3-6.3,35.4c-4.2,8.2-10.1,13.7-17.7,16.6C1240.3,337.6,1231.6,339.1,1221.5,339.1z M1223.6,315.3
		c3.7,0,6.5-0.9,8.4-2.7c1.9-1.8,3.3-4.9,4.1-9.3c0.8-4.4,1.2-10.7,1.2-18.9v-42.3c0-6-0.4-10.8-1.1-14.3c-0.7-3.5-1.9-6.1-3.7-7.7
		c-1.8-1.6-4.2-2.4-7.4-2.4c-1.8,0-3.6,0.4-5.5,1.3s-3.7,2.2-5.4,4.1c-1.7,1.9-3.4,4.4-5.1,7.5v52.6c0,8.2,0.4,14.7,1.3,19.3
		c0.9,4.6,2.4,8,4.5,9.9C1217,314.4,1219.9,315.3,1223.6,315.3z"/>
</g>
</svg>
