<svg width="20" height="20" viewBox="0 0 20 20" fill="none" xmlns="http://www.w3.org/2000/svg">
<path d="M10.4964 0.542021C10.431 0.475988 10.3531 0.423574 10.2672 0.387804C10.1814 0.352035 10.0894 0.333618 9.9964 0.333618C9.90343 0.333618 9.81137 0.352035 9.72555 0.387804C9.63974 0.423574 9.56185 0.475988 9.4964 0.542021L0.476403 9.56202C0.343795 9.6933 0.268769 9.87189 0.267831 10.0585C0.266893 10.2451 0.34012 10.4244 0.471402 10.557C0.602685 10.6896 0.781268 10.7647 0.967867 10.7656C1.15447 10.7665 1.33379 10.6933 1.4664 10.562L9.3004 2.72602V18.964C9.3004 19.1497 9.37415 19.3277 9.50543 19.459C9.6367 19.5903 9.81475 19.664 10.0004 19.664C10.1861 19.664 10.3641 19.5903 10.4954 19.459C10.6267 19.3277 10.7004 19.1497 10.7004 18.964V2.72602L18.5264 10.552C18.5914 10.6188 18.6692 10.6719 18.7551 10.7081C18.8409 10.7443 18.9332 10.763 19.0264 10.763C19.1196 10.763 19.2119 10.7443 19.2977 10.7081C19.3836 10.6719 19.4614 10.6188 19.5264 10.552C19.5932 10.487 19.6462 10.4092 19.6825 10.3234C19.7187 10.2375 19.7374 10.1452 19.7374 10.052C19.7374 9.95882 19.7187 9.86656 19.6825 9.78068C19.6462 9.69481 19.5932 9.61706 19.5264 9.55202L10.4964 0.542021Z" fill="white" fill-opacity="0.6"/>
</svg>
