<svg width="122" height="37" viewBox="0 0 122 37" fill="none" xmlns="http://www.w3.org/2000/svg">
<g clip-path="url(#clip0_1213_243)">
<path d="M18.5834 0C14.9053 6.28119e-07 11.3099 1.0856 8.25191 3.11948C5.19389 5.15336 2.81064 8.04415 1.40362 11.4262C-0.00340783 14.8083 -0.370997 18.5296 0.347344 22.1196C1.06569 25.7096 2.83768 29.007 5.43921 31.5946C8.04073 34.1822 11.3549 35.9438 14.9625 36.6566C18.5701 37.3694 22.3091 37.0014 25.7066 35.5991C29.104 34.1968 32.0073 31.8232 34.0491 28.7786C36.0909 25.734 37.1796 22.1551 37.1775 18.4946C37.1717 13.5894 35.2105 8.88692 31.7244 5.41945C28.2382 1.95197 23.5121 0.00286853 18.5834 0V0ZM18.5834 2.36332C21.3589 2.35832 24.0891 3.06369 26.5117 4.41167C28.9343 5.75965 30.9679 7.70495 32.4173 10.0607C33.8666 12.4165 34.6829 15.1036 34.7879 17.8639C34.8928 20.6242 34.2828 23.365 33.0164 25.823C32.0751 24.6072 31.0251 23.4788 29.8793 22.4515C30.531 20.7031 30.7616 18.827 30.5527 16.9738C30.3437 15.1206 29.701 13.342 28.676 11.7809C27.6511 10.2198 26.2726 8.91967 24.6512 7.98494C23.0299 7.05022 21.2108 6.50696 19.3402 6.3988C17.4696 6.29065 15.5996 6.62061 13.8804 7.36219C12.1611 8.10377 10.6406 9.23629 9.44097 10.6688C8.2413 12.1013 7.39592 13.7938 6.97273 15.6105C6.54954 17.4271 6.56034 19.3172 7.00426 21.1289C5.66844 20.2325 4.11411 19.7119 2.50551 19.622C2.50551 19.2534 2.50551 18.8849 2.50551 18.5379C2.49958 14.2763 4.18606 10.1851 7.19756 7.15543C10.2091 4.12581 14.3015 2.40335 18.5834 2.36332ZM9.3898 21.1289C9.13751 20.2733 9.00914 19.3863 9.00855 18.4946C9.09235 16.0215 10.1384 13.6776 11.9259 11.9576C13.7134 10.2376 16.1025 9.27613 18.5888 9.27613C21.0752 9.27613 23.4642 10.2376 25.2517 11.9576C27.0392 13.6776 28.0853 16.0215 28.1691 18.4946C28.1685 19.3863 28.0401 20.2733 27.7878 21.1289C24.9408 19.6764 21.7825 18.9325 18.5834 18.9607C15.3865 18.922 12.2292 19.6666 9.3898 21.1289ZM2.77783 22.0179C4.25306 22.1828 5.61808 22.8747 6.61966 23.9652C7.62123 25.0557 8.19136 26.4708 8.22426 27.9478C8.21955 28.8008 8.02224 29.6419 7.64694 30.4087C5.20102 28.1723 3.50182 25.2441 2.77783 22.0179ZM9.59676 31.9156C10.2926 30.6803 10.649 29.2843 10.6299 27.8683C10.6107 26.4522 10.2168 25.0662 9.48783 23.85C12.2227 22.1817 15.3759 21.3172 18.5834 21.3566C21.6729 21.3209 24.7144 22.1188 27.3848 23.6657C26.553 24.9605 26.1108 26.4652 26.1103 28.0021C26.1145 29.4426 26.5016 30.8564 27.2323 32.0999C24.5878 33.7865 21.5058 34.6676 18.3651 34.6348C15.2243 34.6021 12.1616 33.657 9.55319 31.9156H9.59676ZM29.2039 30.6689C28.7446 29.8349 28.5048 28.8989 28.5068 27.9478C28.5119 26.9585 28.7746 25.9874 29.2693 25.1292C30.1418 26.0217 30.9499 26.9745 31.6875 27.9804C30.9611 28.9678 30.1242 29.8697 29.193 30.6689H29.2039Z" fill="white" fill-opacity="0.6"/>
<path d="M49.2573 24.5656V12.4238H54.9543C56.2041 12.3571 57.4389 12.7207 58.4509 13.4537C58.8827 13.8169 59.2229 14.2758 59.4442 14.7935C59.6656 15.3113 59.7619 15.8735 59.7254 16.4349C59.761 16.9963 59.6643 17.5582 59.443 18.0758C59.2218 18.5935 58.882 19.0524 58.4509 19.4162C57.4389 20.1491 56.2041 20.5128 54.9543 20.4461H52.0786V24.5656H49.2573ZM52.0786 14.8088V18.1695H54.878C56.2288 18.1695 56.9041 17.6058 56.9041 16.4891C56.9041 15.3725 56.2288 14.8088 54.878 14.8088H52.0786Z" fill="white" fill-opacity="0.6"/>
<path d="M67.4378 19.7845L64.7255 24.5653H61.6973L64.5512 19.5135C63.789 19.2823 63.121 18.8146 62.6448 18.1788C62.1686 17.543 61.9091 16.7723 61.9042 15.9793C61.878 15.4806 61.9676 14.9826 62.1659 14.5239C62.3642 14.0652 62.6661 13.6581 63.048 13.3341C64.02 12.6548 65.1959 12.326 66.3812 12.4018H71.8276V24.5436H68.9628V19.7845H67.4378ZM68.9628 17.497V14.7218H66.1851C65.9744 14.7053 65.7626 14.7314 65.5623 14.7985C65.362 14.8656 65.1774 14.9722 65.0196 15.112C64.8925 15.2447 64.7934 15.4012 64.7279 15.5725C64.6625 15.7437 64.632 15.9263 64.6383 16.1094C64.6326 16.2925 64.6633 16.4748 64.7288 16.646C64.7942 16.8172 64.893 16.9738 65.0196 17.1068C65.1774 17.2466 65.362 17.3533 65.5623 17.4203C65.7626 17.4874 65.9744 17.5135 66.1851 17.497H68.9628Z" fill="white" fill-opacity="0.6"/>
<path d="M75.3022 24.5653V12.4235H80.5308C81.581 12.3702 82.6213 12.6471 83.5046 13.2148C83.8521 13.4584 84.1335 13.784 84.3236 14.1624C84.5137 14.5408 84.6066 14.9602 84.5939 15.383C84.6116 15.9018 84.467 16.4132 84.1799 16.8465C83.8615 17.2798 83.462 17.6479 83.0035 17.9306C83.5869 18.1628 84.1034 18.5353 84.5067 19.0147C84.9116 19.5508 85.1193 20.2091 85.0949 20.8794C85.1288 21.3959 85.0354 21.9128 84.8228 22.3851C84.6102 22.8575 84.2848 23.271 83.8749 23.5896C82.9749 24.2597 81.872 24.6039 80.7487 24.5653H75.3022ZM78.1235 14.6133V17.0092H80.4764C80.8663 17.0294 81.2513 16.9144 81.5656 16.6839C81.6959 16.5763 81.7992 16.4399 81.8673 16.2856C81.9354 16.1313 81.9663 15.9633 81.9578 15.795C81.9643 15.6311 81.9333 15.468 81.8673 15.3177C81.8013 15.1675 81.7018 15.0342 81.5765 14.9277C81.2581 14.7065 80.8752 14.596 80.4872 14.6133H78.1235ZM78.1235 19.2966V22.2453H80.6071C81.7944 22.2453 82.3826 21.7575 82.3826 20.7926C82.3826 19.8278 81.8053 19.2966 80.6071 19.2966H78.1235Z" fill="white" fill-opacity="0.6"/>
<path d="M89.8117 12.4235L91.8051 15.7409L93.9836 12.4235H96.9465L93.4608 17.9958L97.4476 24.5653H94.2451L91.8051 20.4458L89.3977 24.5653H86.1299L90.1929 18.0608L86.6418 12.4019L89.8117 12.4235Z" fill="white" fill-opacity="0.6"/>
<path d="M98.2974 24.5656L103.265 12.4238H105.911L110.879 24.5656H107.84L106.75 21.682H102.458L101.369 24.609L98.2974 24.5656ZM104.081 17.2697L103.352 19.2428H105.824L105.095 17.2697L104.92 16.8144C104.785 16.4947 104.676 16.1649 104.593 15.8279L104.485 16.1639L104.365 16.5434C104.365 16.6409 104.288 16.7385 104.256 16.8144L104.081 17.2697Z" fill="white" fill-opacity="0.6"/>
<path d="M115.028 17.0095H117.643C118.783 16.9616 119.902 17.319 120.802 18.0177C121.203 18.3568 121.52 18.7839 121.728 19.2654C121.936 19.7469 122.029 20.2697 122 20.793C122.023 21.3187 121.925 21.8427 121.711 22.3241C121.498 22.8056 121.175 23.2313 120.769 23.5683C119.866 24.2589 118.748 24.6119 117.61 24.5656H112.164V12.4238H120.475V14.592H115.028V17.0095ZM115.028 19.297V22.2457H117.523C118.71 22.2457 119.298 21.7578 119.298 20.793C119.298 19.8282 118.71 19.297 117.523 19.297H115.028Z" fill="white" fill-opacity="0.6"/>
</g>
<defs>
<clipPath id="clip0_1213_243">
<rect width="122" height="37" fill="white"/>
</clipPath>
</defs>
</svg>
