<svg width="20" height="20" viewBox="0 0 20 20" fill="none" xmlns="http://www.w3.org/2000/svg">
<path d="M10.496 0.541899C10.4306 0.475866 10.3527 0.423452 10.2669 0.387682C10.181 0.351913 10.089 0.333496 9.99601 0.333496C9.90303 0.333496 9.81098 0.351913 9.72516 0.387682C9.63934 0.423452 9.56146 0.475866 9.49601 0.541899L0.476006 9.5619C0.343398 9.69318 0.268372 9.87177 0.267434 10.0584C0.266497 10.245 0.339724 10.4243 0.471006 10.5569C0.602288 10.6895 0.780872 10.7645 0.96747 10.7655C1.15407 10.7664 1.3334 10.6932 1.46601 10.5619L9.3 2.7259V18.9639C9.3 19.1496 9.37375 19.3276 9.50503 19.4589C9.6363 19.5902 9.81435 19.6639 10 19.6639C10.1857 19.6639 10.3637 19.5902 10.495 19.4589C10.6263 19.3276 10.7 19.1496 10.7 18.9639V2.7259L18.526 10.5519C18.591 10.6187 18.6688 10.6717 18.7547 10.708C18.8405 10.7442 18.9328 10.7629 19.026 10.7629C19.1192 10.7629 19.2115 10.7442 19.2973 10.708C19.3832 10.6717 19.461 10.6187 19.526 10.5519C19.5928 10.4869 19.6458 10.4091 19.6821 10.3232C19.7183 10.2374 19.737 10.1451 19.737 10.0519C19.737 9.9587 19.7183 9.86643 19.6821 9.78056C19.6458 9.69468 19.5928 9.61694 19.526 9.5519L10.496 0.541899Z" fill="white" fill-opacity="0.6"/>
</svg>
