<svg width="26" height="26" viewBox="0 0 26 26" fill="none" xmlns="http://www.w3.org/2000/svg">
<path d="M20.481 13.101C23.0133 13.101 25.0894 11.0612 25.0894 8.5228C25.0894 5.98438 23.0361 3.94458 20.481 3.94458" stroke="#8B8B8D" stroke-miterlimit="10" stroke-linecap="round" stroke-linejoin="round"/>
<path d="M5.69775 13.1008C3.16542 13.1008 1.08936 15.1406 1.08936 17.679C1.08936 20.2175 3.1426 22.2573 5.69775 22.2573" stroke="#8B8B8D" stroke-miterlimit="10" stroke-linecap="round" stroke-linejoin="round"/>
<path d="M6.79331 13.1008H5.69824" stroke="#8B8B8D" stroke-miterlimit="10" stroke-linecap="round" stroke-linejoin="round"/>
<path d="M20.4809 13.1008H19.4771" stroke="#8B8B8D" stroke-miterlimit="10" stroke-linecap="round" stroke-linejoin="round"/>
<path d="M20.4816 3.94458H7.08984" stroke="#8B8B8D" stroke-miterlimit="10" stroke-linecap="round" stroke-linejoin="round"/>
<path d="M5.69824 22.2349H19.2953" stroke="#8B8B8D" stroke-miterlimit="10" stroke-linecap="round" stroke-linejoin="round"/>
<path d="M4.21488 6.80031C5.80244 6.80031 7.08942 5.52176 7.08942 3.94459C7.08942 2.36742 5.80244 1.08887 4.21488 1.08887C2.62731 1.08887 1.34033 2.36742 1.34033 3.94459C1.34033 5.52176 2.62731 6.80031 4.21488 6.80031Z" stroke="#8B8B8D" stroke-miterlimit="10" stroke-linecap="round" stroke-linejoin="round"/>
<path d="M13.1352 19.379C16.6379 19.379 19.4775 16.5581 19.4775 13.0783C19.4775 9.59852 16.6379 6.77759 13.1352 6.77759C9.63249 6.77759 6.79297 9.59852 6.79297 13.0783C6.79297 16.5581 9.63249 19.379 13.1352 19.379Z" stroke="#8B8B8D" stroke-miterlimit="10" stroke-linecap="round" stroke-linejoin="round"/>
<path d="M22.1695 25.0903C23.757 25.0903 25.044 23.8118 25.044 22.2346C25.044 20.6575 23.757 19.3789 22.1695 19.3789C20.5819 19.3789 19.2949 20.6575 19.2949 22.2346C19.2949 23.8118 20.5819 25.0903 22.1695 25.0903Z" stroke="#8B8B8D" stroke-miterlimit="10" stroke-linecap="round" stroke-linejoin="round"/>
<path d="M10.6479 13.849H13.5453V10.1094" stroke="#8B8B8D" stroke-miterlimit="10" stroke-linecap="round" stroke-linejoin="round"/>
</svg>
