<svg width="14" height="15" viewBox="0 0 14 15" fill="none" xmlns="http://www.w3.org/2000/svg">
<path d="M13.1208 2.10509C12.8561 1.09108 12.1837 0.436203 11.1989 0.0644018C10.9473 -0.0285487 10.726 -0.0285487 10.5308 0.115102L10.392 0.250303L9.76726 0.858705L9.55469 1.06573C10.4007 1.88961 11.2163 2.67969 12.0449 3.47822L12.0666 3.45709L12.0926 3.42752C12.3572 3.16979 12.6175 2.90361 12.8908 2.65434L12.8952 2.65011C12.9212 2.62476 12.9472 2.60364 12.9689 2.58251C12.9906 2.56139 13.0123 2.54026 13.0297 2.51914C13.1338 2.39661 13.1642 2.26564 13.1208 2.10509Z" fill="white"/>
<path d="M4.79167 5.69912L4.63983 5.84699C3.6507 6.80607 2.66591 7.76938 1.68111 8.73268C1.61604 8.79606 1.55964 8.89746 1.54229 8.98618C1.39479 9.70866 1.25596 10.4354 1.11713 11.1578C1.07809 11.3649 1.03904 11.5761 1 11.7916C1.0564 11.7874 1.08243 11.7916 1.10846 11.7831C2.04119 11.6141 2.97826 11.4451 3.911 11.2677C3.99776 11.2508 4.08887 11.1959 4.15394 11.1325C5.33396 9.98329 6.51832 8.83408 7.69833 7.68488L10.3968 5.06114L10.4879 4.97241L11.3035 4.18234L8.82195 1.76562L4.79167 5.69912Z" fill="white"/>
<path d="M1.25781 14.1094H13.1361" stroke="white" stroke-width="1.2" stroke-miterlimit="10" stroke-linecap="round" stroke-linejoin="round"/>
</svg>
