<svg width="41" height="40" viewBox="0 0 41 40" fill="none" xmlns="http://www.w3.org/2000/svg">
<path d="M21.4 36.3C20.6 36.4 19.7 36.5 18.9 36.5C16.2 36.5 13.6 35.9 11.3 34.7C11.2 34.4 11 34.1 11 34.1C10.7 33.3 10.6 32.4 10.6 31.5C10.6 26.5 14.7 22.4 19.7 22.4C20.9 22.4 22 22.6 23.1 23.1C23.4 23.2 23.8 23.1 23.9 22.7C24 22.4 23.9 22 23.5 21.9C23.2 21.8 23 21.7 22.7 21.6C24.6 20.5 26 18.4 26 16.1C26 12.6 23.1 9.7 19.6 9.7C16.1 9.7 13.2 12.6 13.2 16.1C13.2 18.5 14.5 20.5 16.4 21.6C12.2 22.9 9.1 26.9 9.1 31.5C9.1 32.3 9.2 33 9.4 33.8C4.4 30.7 1.1 25.2 1.1 18.9C1.1 9.2 9 1.3 18.7 1.3C28.4 1.3 36.3 9.2 36.3 18.9C36.3 19.3 36.3 19.8 36.3 20.2C36.3 20.6 36.5 20.9 36.9 20.9C37.2 20.9 37.6 20.7 37.6 20.3C37.6 19.8 37.7 19.4 37.7 18.9C37.8 8.5 29.3 0 18.9 0C8.5 0 0 8.5 0 18.9C0 26.3 4.2 32.6 10.4 35.7C10.5 35.8 10.6 35.8 10.7 35.8C13.2 37 16 37.7 18.9 37.7C19.8 37.7 20.7 37.6 21.6 37.5C22 37.4 22.2 37.1 22.2 36.8C22.1 36.5 21.8 36.3 21.4 36.3ZM14.7 16.1C14.7 13.3 17 11 19.8 11C22.6 11 24.9 13.3 24.9 16.1C24.9 18.9 22.6 21.2 19.8 21.2C17 21.2 14.7 18.8 14.7 16.1Z" />
<path d="M31.3031 27C29.3031 27 27.7031 28.6 27.7031 30.6C27.7031 32.6 29.3031 34.2 31.3031 34.2C33.3031 34.2 34.9031 32.6 34.9031 30.6C34.9031 28.6 33.3031 27 31.3031 27ZM31.3031 32.8C30.1031 32.8 29.0031 31.8 29.0031 30.5C29.0031 29.2 30.0031 28.2 31.3031 28.2C32.5031 28.2 33.6031 29.2 33.6031 30.5C33.6031 31.8 32.5031 32.8 31.3031 32.8Z" />
<path d="M40.1969 29.1984C40.1969 28.8984 39.9969 28.6984 39.6969 28.6984L37.5969 28.1984C37.5969 28.0984 37.4969 27.9984 37.4969 27.8984L38.6969 26.1984C38.8969 25.9984 38.8969 25.6984 38.6969 25.3984C38.3969 24.9984 37.9969 24.4984 37.6969 24.1984C37.3969 23.8984 36.9969 23.5984 36.6969 23.2984C36.4969 23.0984 36.1969 23.0984 35.9969 23.2984L34.0969 24.3984C33.9969 24.3984 33.8969 24.2984 33.7969 24.2984L33.4969 22.2984C33.4969 21.9984 33.1969 21.7984 32.9969 21.7984C31.9969 21.5984 30.9969 21.5984 29.9969 21.7984C29.6969 21.7984 29.4969 21.9984 29.4969 22.2984L28.9969 24.3984C28.8969 24.3984 28.7969 24.4984 28.6969 24.4984L26.9969 23.2984C26.7969 23.0984 26.4969 23.0984 26.1969 23.2984C25.7969 23.5984 25.2969 23.9984 24.9969 24.2984C24.6969 24.5984 24.3969 24.9984 24.0969 25.2984C23.8969 25.4984 23.8969 25.7984 24.0969 25.9984L25.1969 27.8984C24.9969 27.8984 24.9969 27.9984 24.8969 28.0984L22.8969 28.3984C22.5969 28.3984 22.3969 28.6984 22.3969 28.8984C22.2969 29.3984 22.2969 29.9984 22.2969 30.4984C22.2969 30.9984 22.2969 31.3984 22.3969 31.8984C22.3969 32.1984 22.5969 32.3984 22.8969 32.3984L24.9969 32.9984C24.9969 33.0984 25.0969 33.1984 25.0969 33.2984L23.8969 34.9984C23.6969 35.1984 23.6969 35.4984 23.8969 35.7984C24.1969 36.1984 24.5969 36.6984 24.8969 36.9984C25.1969 37.2984 25.5969 37.5984 25.8969 37.8984C25.9969 37.9984 26.0969 37.9984 26.2969 37.9984C26.3969 37.9984 26.4969 37.9984 26.5969 37.8984L28.4969 36.7984C28.5969 36.7984 28.6969 36.8984 28.7969 36.8984L29.0969 38.8984C29.0969 39.1984 29.3969 39.3984 29.5969 39.3984C30.0969 39.4984 30.6969 39.4984 31.1969 39.4984C31.6969 39.4984 32.0969 39.4984 32.5969 39.3984C32.8969 39.3984 33.0969 39.1984 33.0969 38.8984L33.5969 36.7984C33.6969 36.7984 33.7969 36.6984 33.8969 36.6984L35.5969 37.8984C35.6969 37.9984 35.7969 37.9984 35.9969 37.9984C36.0969 37.9984 36.2969 37.9984 36.3969 37.8984C36.7969 37.5984 37.2969 37.1984 37.5969 36.8984C37.8969 36.5984 38.1969 36.1984 38.4969 35.8984C38.6969 35.6984 38.6969 35.3984 38.4969 35.1984L37.3969 33.2984C37.3969 33.1984 37.4969 33.0984 37.4969 32.9984L39.4969 32.6984C39.7969 32.6984 39.9969 32.3984 39.9969 32.1984C40.0969 31.6984 40.0969 31.0984 40.0969 30.5984C40.3969 30.0984 40.2969 29.6984 40.1969 29.1984ZM38.9969 31.4984L37.0969 31.7984H36.9969H36.8969L36.7969 31.8984C36.7969 31.8984 36.6969 31.8984 36.6969 31.9984L36.5969 32.0984C36.5969 32.0984 36.5969 32.0984 36.5969 32.1984C36.4969 32.4984 36.3969 32.7984 36.1969 32.9984C36.0969 33.1984 36.0969 33.3984 36.1969 33.5984L37.2969 35.3984C37.0969 35.5984 36.9969 35.7984 36.7969 35.8984C36.5969 36.0984 36.2969 36.2984 36.0969 36.4984L34.4969 35.3984C34.2969 35.2984 33.9969 35.1984 33.7969 35.2984C33.4969 35.3984 33.1969 35.5984 32.8969 35.6984C32.6969 35.7984 32.4969 35.9984 32.4969 36.1984L31.9969 38.1984C31.3969 38.2984 30.8969 38.1984 30.2969 38.1984L29.9969 36.2984C29.9969 36.1984 29.9969 36.1984 29.8969 36.0984C29.8969 35.9984 29.7969 35.9984 29.7969 35.9984L29.6969 35.8984C29.3969 35.7984 29.0969 35.6984 28.8969 35.4984C28.6969 35.3984 28.4969 35.3984 28.2969 35.4984L26.4969 36.5984C26.2969 36.3984 26.0969 36.2984 25.9969 36.0984C25.7969 35.8984 25.5969 35.5984 25.3969 35.3984L26.4969 33.8984C26.4969 33.7984 26.5969 33.7984 26.5969 33.6984C26.5969 33.5984 26.5969 33.5984 26.5969 33.4984C26.5969 33.3984 26.5969 33.3984 26.4969 33.2984C26.3969 32.9984 26.1969 32.6984 26.0969 32.4984C25.9969 32.2984 25.7969 32.0984 25.5969 32.0984L23.5969 31.5984C23.5969 31.3984 23.5969 31.0984 23.5969 30.8984C23.5969 30.5984 23.5969 30.2984 23.6969 29.9984L25.5969 29.6984H25.6969H25.7969C25.7969 29.6984 25.8969 29.6984 25.8969 29.5984C25.8969 29.5984 25.8969 29.5984 25.9969 29.4984C25.9969 29.4984 25.9969 29.3984 26.0969 29.3984V29.2984C26.1969 28.9984 26.2969 28.6984 26.4969 28.4984C26.5969 28.2984 26.5969 28.0984 26.4969 27.8984L25.3969 26.0984C25.5969 25.8984 25.6969 25.6984 25.8969 25.5984C26.0969 25.3984 26.3969 25.1984 26.5969 24.9984L28.1969 26.0984C28.3969 26.1984 28.6969 26.2984 28.8969 26.1984C29.1969 26.0984 29.4969 25.8984 29.7969 25.7984C29.9969 25.6984 30.1969 25.4984 30.1969 25.2984L30.6969 23.2984C31.1969 23.1984 31.7969 23.2984 32.3969 23.2984L32.6969 25.1984C32.6969 25.1984 32.6969 25.1984 32.6969 25.2984C32.6969 25.3984 32.6969 25.3984 32.7969 25.4984C32.8969 25.5984 32.9969 25.6984 33.1969 25.7984C33.4969 25.8984 33.7969 25.9984 33.9969 26.1984C34.0969 26.1984 34.1969 26.2984 34.2969 26.2984C34.3969 26.2984 34.4969 26.2984 34.5969 26.1984L36.3969 25.0984C36.5969 25.2984 36.7969 25.3984 36.8969 25.5984C37.0969 25.7984 37.2969 26.0984 37.4969 26.2984L36.3969 27.7984C36.3969 27.8984 36.2969 27.8984 36.2969 27.9984C36.2969 28.0984 36.2969 28.0984 36.2969 28.1984C36.2969 28.2984 36.2969 28.2984 36.3969 28.3984C36.4969 28.6984 36.6969 28.9984 36.7969 29.1984C36.8969 29.3984 37.0969 29.5984 37.2969 29.5984L39.2969 30.0984C39.2969 30.2984 39.2969 30.5984 39.2969 30.7984C39.0969 30.8984 38.9969 31.1984 38.9969 31.4984Z" />
</svg>
