<svg width="32" height="32" viewBox="0 0 32 32" fill="none" xmlns="http://www.w3.org/2000/svg">
<g id="Group 34">
<path id="Vector" d="M22.7296 13.0548C21.6438 9.56833 18.1391 7.54419 14.5815 8.24863C11.4564 8.87281 9.0905 11.5657 8.90512 14.7669C8.7727 16.9872 9.54956 18.8686 11.1562 20.3934C11.2533 20.4826 11.2887 20.5628 11.2887 20.6966C11.2887 21.0979 11.2533 21.508 11.3151 21.9093C11.4829 23.0863 12.4274 23.8888 13.6104 23.8978C13.6898 23.8978 13.7781 23.8978 13.8576 23.8978V21.2584C13.8576 20.8571 14.1754 20.5361 14.5726 20.5361C14.7668 20.5361 14.9522 20.6163 15.0758 20.7501C15.2082 20.8839 15.2877 21.0622 15.2877 21.2584V23.8978C15.5172 23.8978 15.7556 23.8978 15.9851 23.8978C16.2234 23.8978 16.453 23.8978 16.6913 23.8978V21.2584C16.6913 20.8571 17.0091 20.5361 17.4064 20.5361C17.6006 20.5361 17.786 20.6163 17.9096 20.7501C18.042 20.8839 18.1214 21.0622 18.1214 21.2584V23.8978C18.1921 23.8978 18.2715 23.8978 18.3421 23.8978C19.5251 23.8888 20.4697 23.0952 20.6462 21.9093C20.6992 21.5348 20.6815 21.1335 20.6727 20.7501C20.6727 20.5896 20.7257 20.4826 20.8404 20.3578C22.915 18.3158 23.6036 15.8547 22.7296 13.0548ZM13.8576 18.1642C13.0807 18.1642 12.4363 17.5311 12.4274 16.7375C12.4186 15.9439 13.0631 15.293 13.8576 15.3019C14.6432 15.3019 15.2789 15.9439 15.2789 16.7286C15.2789 17.5133 14.6432 18.1642 13.8576 18.1642ZM18.1214 18.1642C17.3446 18.1642 16.7001 17.5311 16.6913 16.7375C16.6825 15.9439 17.3269 15.293 18.1214 15.3019C18.9071 15.3019 19.5427 15.9439 19.5427 16.7286C19.5427 17.5133 18.8983 18.1642 18.1214 18.1642Z" fill="white" fill-opacity="0.6"/>
<path id="Vector_2" d="M1.07762 17.5778C1.02587 17.0683 1 16.5411 1 16.014C1 7.72073 7.59794 1 15.7397 1C20.7507 1 25.1752 3.54773 27.8403 7.43082" stroke="white" stroke-opacity="0.6" stroke-width="1.2" stroke-miterlimit="10" stroke-linecap="round" stroke-linejoin="round"/>
<path id="Vector_3" d="M30.8837 14.4219C30.9698 15.0483 31.0043 15.6832 31.0043 16.3354C31.0043 24.4355 24.4106 30.9997 16.2741 30.9997C11.2577 30.9997 6.8274 28.5027 4.16406 24.6929" stroke="white" stroke-opacity="0.6" stroke-width="1.5" stroke-miterlimit="10" stroke-linecap="round" stroke-linejoin="round"/>
<path id="Vector_4" d="M27.8388 1V7.31536H21.5234" stroke="white" stroke-opacity="0.6" stroke-width="1.2" stroke-miterlimit="10" stroke-linecap="round" stroke-linejoin="round"/>
<path id="Vector_5" d="M4.16406 30.995V24.6797H10.4794" stroke="white" stroke-opacity="0.6" stroke-width="1.5" stroke-miterlimit="10" stroke-linecap="round" stroke-linejoin="round"/>
</g>
</svg>
