<svg width="74" height="23" viewBox="0 0 74 23" fill="none" xmlns="http://www.w3.org/2000/svg">
<g clip-path="url(#clip0_3129_3998)">
<path d="M11.2706 0C9.03965 3.90452e-07 6.85882 0.674832 5.00396 1.93914C3.14909 3.20344 1.70352 5.00042 0.850077 7.10278C-0.00336379 9.20514 -0.226327 11.5184 0.209388 13.75C0.645103 15.9817 1.71992 18.0314 3.29789 19.6399C4.87587 21.2484 6.8861 22.3434 9.07433 22.7865C11.2626 23.2296 13.5305 23.0009 15.5912 22.1292C17.652 21.2575 19.4129 19.782 20.6514 17.8894C21.8899 15.9968 22.5503 13.7721 22.549 11.4966C22.5455 8.44746 21.3559 5.5243 19.2413 3.36885C17.1268 1.21339 14.2601 0.00178314 11.2706 0V0ZM11.2706 1.46909C12.9541 1.46598 14.6101 1.90445 16.0796 2.74239C17.549 3.58032 18.7825 4.78956 19.6616 6.25396C20.5407 7.71836 21.0359 9.38872 21.0995 11.1046C21.1632 12.8205 20.7932 14.5242 20.025 16.0522C19.4541 15.2964 18.8172 14.5949 18.1222 13.9563C18.5175 12.8695 18.6574 11.7033 18.5307 10.5513C18.4039 9.39931 18.014 8.2937 17.3924 7.32328C16.7707 6.35285 15.9345 5.54466 14.9511 4.96361C13.9676 4.38257 12.8643 4.04487 11.7297 3.97763C10.595 3.9104 9.46075 4.11552 8.41794 4.5765C7.37513 5.03748 6.45286 5.74148 5.72519 6.63195C4.99752 7.52242 4.48475 8.57454 4.22807 9.7038C3.97138 10.8331 3.97793 12.008 4.24719 13.1342C3.43694 12.577 2.49414 12.2533 1.51844 12.1975C1.51844 11.9684 1.51844 11.7392 1.51844 11.5236C1.51484 8.87447 2.53779 6.33125 4.36444 4.44797C6.19108 2.56469 8.67339 1.49398 11.2706 1.46909ZM5.69415 13.1342C5.54113 12.6023 5.46326 12.0509 5.46291 11.4966C5.51374 9.95931 6.14823 8.50228 7.23245 7.4331C8.31667 6.36391 9.76577 5.76624 11.2739 5.76624C12.782 5.76624 14.2311 6.36391 15.3153 7.4331C16.3995 8.50228 17.034 9.95931 17.0849 11.4966C17.0845 12.0509 17.0066 12.6023 16.8536 13.1342C15.1268 12.2313 13.211 11.7688 11.2706 11.7864C9.33152 11.7623 7.41643 12.2252 5.69415 13.1342ZM1.68362 13.6868C2.57843 13.7893 3.40639 14.2194 4.0139 14.8973C4.62142 15.5752 4.96723 16.4548 4.98719 17.373C4.98433 17.9032 4.86465 18.426 4.63701 18.9027C3.15342 17.5125 2.12276 15.6922 1.68362 13.6868ZM5.81969 19.8394C6.24179 19.0716 6.45793 18.2038 6.44633 17.3235C6.43473 16.4433 6.1958 15.5817 5.75362 14.8257C7.41246 13.7886 9.32507 13.2513 11.2706 13.2757C13.1446 13.2535 14.9894 13.7495 16.6092 14.7111C16.1046 15.516 15.8364 16.4513 15.8361 17.4067C15.8386 18.3022 16.0734 19.181 16.5167 19.954C14.9126 21.0024 13.0432 21.5501 11.1382 21.5298C9.23314 21.5094 7.37542 20.9219 5.79326 19.8394H5.81969ZM17.7125 19.0645C17.434 18.546 17.2885 17.9642 17.2897 17.373C17.2928 16.758 17.4522 16.1543 17.7522 15.6209C18.2814 16.1757 18.7716 16.7679 19.219 17.3932C18.7784 18.007 18.2708 18.5677 17.7059 19.0645H17.7125Z" fill="white" fill-opacity="0.6"/>
<path d="M29.875 15.2712V7.72359H33.3305C34.0886 7.6821 34.8376 7.90818 35.4514 8.36379C35.7133 8.58957 35.9197 8.87482 36.0539 9.19666C36.1882 9.51851 36.2466 9.86797 36.2245 10.217C36.2461 10.566 36.1874 10.9153 36.0532 11.237C35.919 11.5588 35.7129 11.8441 35.4514 12.0702C34.8376 12.5258 34.0886 12.7519 33.3305 12.7104H31.5863V15.2712H29.875ZM31.5863 9.20616V11.2952H33.2843C34.1036 11.2952 34.5132 10.9448 34.5132 10.2507C34.5132 9.55659 34.1036 9.20616 33.2843 9.20616H31.5863Z" fill="white" fill-opacity="0.6"/>
<path d="M40.9038 12.299L39.2587 15.2709H37.4219L39.1529 12.1305C38.6906 11.9868 38.2855 11.6961 37.9966 11.3009C37.7078 10.9056 37.5504 10.4266 37.5474 9.93363C37.5315 9.62363 37.5858 9.31405 37.7061 9.0289C37.8264 8.74375 38.0095 8.49069 38.2412 8.28933C38.8308 7.86707 39.544 7.66262 40.2629 7.70978H43.5665V15.2574H41.8288V12.299H40.9038ZM41.8288 10.8771V9.15192H40.144C40.0162 9.1417 39.8877 9.15792 39.7663 9.19961C39.6448 9.2413 39.5328 9.30759 39.4371 9.39452C39.36 9.47696 39.2999 9.57427 39.2601 9.68073C39.2204 9.78719 39.202 9.90066 39.2058 10.0145C39.2023 10.1283 39.221 10.2417 39.2607 10.3481C39.3004 10.4545 39.3603 10.5518 39.4371 10.6345C39.5328 10.7214 39.6448 10.7877 39.7663 10.8294C39.8877 10.8711 40.0162 10.8873 40.144 10.8771H41.8288Z" fill="white" fill-opacity="0.6"/>
<path d="M45.6719 15.2704V7.72277H48.8433C49.4803 7.68966 50.1113 7.86176 50.6471 8.21471C50.8579 8.36614 51.0285 8.56852 51.1438 8.80373C51.2592 9.03894 51.3155 9.29964 51.3078 9.5625C51.3185 9.88496 51.2308 10.2029 51.0567 10.4723C50.8635 10.7416 50.6213 10.9704 50.3431 11.1462C50.697 11.2905 51.0103 11.522 51.2549 11.82C51.5005 12.1533 51.6265 12.5625 51.6117 12.9791C51.6323 13.3002 51.5756 13.6215 51.4466 13.9151C51.3177 14.2088 51.1203 14.4658 50.8717 14.6639C50.3258 15.0804 49.6568 15.2944 48.9754 15.2704H45.6719ZM47.3831 9.08404V10.5733H48.8103C49.0468 10.5859 49.2803 10.5145 49.471 10.3712C49.55 10.3043 49.6127 10.2195 49.654 10.1236C49.6952 10.0276 49.714 9.92321 49.7088 9.81858C49.7128 9.71673 49.694 9.6153 49.654 9.52192C49.6139 9.42854 49.5536 9.34564 49.4776 9.27947C49.2844 9.14194 49.0522 9.07325 48.8169 9.08404H47.3831ZM47.3831 11.9953V13.8282H48.8896C49.6097 13.8282 49.9665 13.525 49.9665 12.9252C49.9665 12.3255 49.6163 11.9953 48.8896 11.9953H47.3831Z" fill="white" fill-opacity="0.6"/>
<path d="M54.4754 7.72442L55.6845 9.78653L57.0059 7.72442H58.8031L56.6888 11.1882L59.107 15.272H57.1645L55.6845 12.7112L54.2243 15.272H52.2422L54.7067 11.2287L52.5527 7.71094L54.4754 7.72442Z" fill="white" fill-opacity="0.6"/>
<path d="M59.625 15.2742L62.6379 7.72656H64.2434L67.2563 15.2742H65.4129L64.7521 13.4816H62.1489L61.4882 15.3011L59.625 15.2742ZM63.1334 10.7389L62.6907 11.9654H64.1905L63.7479 10.7389L63.6421 10.4558C63.5601 10.2571 63.4939 10.0521 63.4439 9.84259L63.3779 10.0515L63.3052 10.2874C63.3052 10.348 63.2589 10.4087 63.2391 10.4558L63.1334 10.7389Z" fill="white" fill-opacity="0.6"/>
<path d="M69.7689 10.5771H71.3546C72.046 10.5473 72.7253 10.7695 73.2707 11.2039C73.5142 11.4146 73.7066 11.6801 73.8327 11.9794C73.9588 12.2787 74.0152 12.6038 73.9975 12.929C74.0118 13.2558 73.9518 13.5816 73.8223 13.8808C73.6928 14.1801 73.4973 14.4447 73.2509 14.6542C72.7032 15.0835 72.025 15.303 71.3348 15.2742H68.0312V7.72656H73.0725V9.07435H69.7689V10.5771ZM69.7689 11.999V13.832H71.282C72.0021 13.832 72.3589 13.5288 72.3589 12.929C72.3589 12.3293 72.0021 11.999 71.282 11.999H69.7689Z" fill="white" fill-opacity="0.6"/>
</g>
<defs>
<clipPath id="clip0_3129_3998">
<rect width="74" height="23" fill="white"/>
</clipPath>
</defs>
</svg>
