<svg width="30" height="30" viewBox="0 0 30 30" fill="none" xmlns="http://www.w3.org/2000/svg">
<g id="Frame" clip-path="url(#clip0_3025_145)">
<g id="Group">
<path id="Vector" d="M12.7023 7.8125C13.0151 7.82941 13.2602 7.96466 13.4546 8.20134C13.8519 8.67471 14.3591 8.92831 14.9762 8.93676C15.5764 8.93676 16.0836 8.70853 16.4808 8.26051C16.8781 7.8125 17.1994 7.73642 17.7573 7.94775C18.5011 8.23515 19.1689 8.6409 19.786 9.13963C20.141 9.43549 20.2425 9.80743 20.0988 10.2385C19.6846 11.4558 20.3777 12.6477 21.6372 12.8844C22.1022 12.9689 22.3727 13.2394 22.4572 13.7043C22.6178 14.5665 22.6093 15.4203 22.4487 16.274C22.3727 16.6882 22.0599 16.9841 21.6372 17.0433C20.3355 17.2461 19.6 18.4972 20.065 19.7314C20.234 20.1709 20.1326 20.5598 19.7606 20.8641C19.1689 21.3459 18.5265 21.7347 17.8164 22.0221C17.3938 22.1997 16.9796 22.0898 16.6837 21.7263C15.8131 20.6443 14.3338 20.6612 13.4885 21.7685C13.1926 22.1489 12.7869 22.2673 12.3388 22.0982C11.5781 21.8108 10.8849 21.4135 10.2594 20.8979C9.86208 20.5767 9.76065 20.1878 9.95507 19.7229C10.327 18.8184 10.0396 17.8294 9.24501 17.2969C8.99987 17.1278 8.72937 17.0264 8.42506 16.9841C7.85025 16.908 7.57975 16.6544 7.48677 16.0712C7.35997 15.2428 7.38533 14.4144 7.54594 13.5944C7.63047 13.1549 7.94323 12.8928 8.3997 12.8252C9.70993 12.6477 10.4707 11.4051 10.0227 10.154C9.86208 9.69754 9.97197 9.3087 10.3608 9.00438C10.961 8.53947 11.6203 8.16753 12.3388 7.90548C12.4572 7.86322 12.584 7.84631 12.7023 7.8125ZM17.5206 14.9976C17.5206 13.6198 16.3879 12.4786 15.0185 12.4786C13.6153 12.4786 12.4741 13.6029 12.4741 14.9892C12.4741 16.3924 13.5983 17.5251 14.9931 17.5251C16.3879 17.5251 17.5206 16.3924 17.5206 14.9976Z" fill="white" fill-opacity="0.6"/>
</g>
<path id="Vector_2" d="M0.622953 16.4978C0.572234 16.0076 0.546875 15.5004 0.546875 14.9932C0.546875 7.01348 7.01349 0.546875 14.9932 0.546875C19.9044 0.546875 24.2409 2.99827 26.8529 6.73453" stroke="white" stroke-opacity="0.6" stroke-width="1.2" stroke-miterlimit="10" stroke-linecap="round" stroke-linejoin="round"/>
<path id="Vector_3" d="M29.3218 13.1094C29.4063 13.7265 29.4401 14.352 29.4401 14.9944C29.4401 22.9741 22.9735 29.4407 14.9938 29.4407C10.0741 29.4407 5.72919 26.9809 3.11719 23.2277" stroke="white" stroke-opacity="0.6" stroke-width="1.2" stroke-miterlimit="10" stroke-linecap="round" stroke-linejoin="round"/>
<path id="Vector_4" d="M26.8518 0.789062V6.74003H20.7656" stroke="white" stroke-opacity="0.6" stroke-width="1.2" stroke-miterlimit="10" stroke-linecap="round" stroke-linejoin="round"/>
<path id="Vector_5" d="M3.10156 29.1932V23.2422H9.18778" stroke="white" stroke-opacity="0.6" stroke-width="1.2" stroke-miterlimit="10" stroke-linecap="round" stroke-linejoin="round"/>
</g>
<defs>
<clipPath id="clip0_3025_145">
<rect width="30" height="30" fill="white"/>
</clipPath>
</defs>
</svg>
